<?xml version="1.0" standalone="no"?>
<!DOCTYPE svg PUBLIC "-//W3C//DTD SVG 20010904//EN"
 "http://www.w3.org/TR/2001/REC-SVG-20010904/DTD/svg10.dtd">
<svg version="1.0" xmlns="http://www.w3.org/2000/svg"
 width="512.000000pt" height="512.000000pt" viewBox="0 0 512.000000 512.000000"
 preserveAspectRatio="xMidYMid meet">
<metadata>
Created by potrace 1.11, written by Peter Selinger 2001-2013
</metadata>
<g transform="translate(0.000000,512.000000) scale(0.100000,-0.100000)"
fill="#000000" stroke="none">
<path d="M0 2560 l0 -2560 2560 0 2560 0 0 325 0 325 -2215 0 -2215 0 0 2235
0 2235 -345 0 -345 0 0 -2560z"/>
<path d="M1252 3158 l3 -1963 1933 -3 1932 -2 0 1965 0 1965 -1935 0 -1935 0
2 -1962z m1492 1255 c3 -10 52 -223 110 -473 58 -250 157 -680 221 -954 63
-275 115 -501 115 -504 0 -36 18 41 290 1228 57 245 117 506 134 580 l32 135
377 3 377 2 0 -1245 0 -1245 -245 0 -246 0 3 1034 c2 569 1 1033 -1 1030 -2
-2 -108 -466 -236 -1031 l-231 -1028 -256 -3 -256 -2 -12 52 c-35 168 -451
2012 -453 2014 -1 2 0 -463 2 -1032 l3 -1034 -246 0 -246 0 0 1245 0 1245 379
0 c353 0 380 -1 385 -17z"/>
</g>
</svg>
